<?xml version="1.0" encoding="UTF-8" standalone="no"?>
<!DOCTYPE svg PUBLIC "-//W3C//DTD SVG 1.1//EN"
 "http://www.w3.org/Graphics/SVG/1.1/DTD/svg11.dtd">
<!-- Generated by graphviz version 2.38.0 (20140413.2041)
 -->
<!-- Title: map Pages: 1 -->
<svg width="1036pt" height="1036pt"
 viewBox="0.00 0.00 1036.00 1036.00" xmlns="http://www.w3.org/2000/svg" xmlns:xlink="http://www.w3.org/1999/xlink">
<g id="graph0" class="graph" transform="scale(1 1) rotate(0) translate(4 1032)">
<title>map</title>
<polygon fill="white" stroke="none" points="-4,4 -4,-1032 1032,-1032 1032,4 -4,4"/>
<!-- node1 -->
<g id="node1" class="node"><title>node1</title>
<ellipse fill="none" stroke="black" cx="34" cy="-34" rx="33.5952" ry="33.5952"/>
<text text-anchor="middle" x="34" y="-30.3" font-family="Times,serif" font-size="14.00">node1</text>
</g>
<!-- node2 -->
<g id="node2" class="node"><title>node2</title>
<ellipse fill="none" stroke="black" cx="34" cy="-514" rx="33.5952" ry="33.5952"/>
<text text-anchor="middle" x="34" y="-510.3" font-family="Times,serif" font-size="14.00">node2</text>
</g>
<!-- node1&#45;&gt;node2 -->
<g id="edge1" class="edge"><title>node1&#45;&gt;node2</title>
<path fill="none" stroke="black" d="M30.3326,-67.7527C26.3704,-152.7 26.2278,-375.311 29.9047,-470.169"/>
<polygon fill="black" stroke="black" points="26.4131,-470.442 30.3343,-480.285 33.4068,-470.145 26.4131,-470.442"/>
</g>
<!-- node4 -->
<g id="node4" class="node"><title>node4</title>
<ellipse fill="none" stroke="black" cx="514" cy="-34" rx="34.394" ry="34.394"/>
<text text-anchor="middle" x="514" y="-30.3" font-family="Times,serif" font-size="14.00">node4</text>
</g>
<!-- node1&#45;&gt;node4 -->
<g id="edge2" class="edge"><title>node1&#45;&gt;node4</title>
<path fill="none" stroke="black" d="M67.7527,-37.6674C152.495,-41.62 374.234,-41.7715 469.478,-38.1219"/>
<polygon fill="black" stroke="black" points="469.798,-41.6117 479.642,-37.6955 469.504,-34.6178 469.798,-41.6117"/>
</g>
<!-- node5 -->
<g id="node5" class="node"><title>node5</title>
<ellipse fill="none" stroke="black" cx="514" cy="-514" rx="34.394" ry="34.394"/>
<text text-anchor="middle" x="514" y="-510.3" font-family="Times,serif" font-size="14.00">node5</text>
</g>
<!-- node1&#45;&gt;node5 -->
<g id="edge3" class="edge"><title>node1&#45;&gt;node5</title>
<path fill="none" stroke="black" d="M55.5771,-60.0295C131.586,-142.625 386.761,-397.998 479.773,-484.821"/>
<polygon fill="black" stroke="black" points="477.514,-487.5 487.225,-491.737 482.276,-482.369 477.514,-487.5"/>
</g>
<!-- node2&#45;&gt;node1 -->
<g id="edge4" class="edge"><title>node2&#45;&gt;node1</title>
<path fill="none" stroke="black" d="M37.6674,-480.247C41.6296,-395.3 41.7722,-172.689 38.0953,-77.8308"/>
<polygon fill="black" stroke="black" points="41.5869,-77.5578 37.6657,-67.7154 34.5932,-77.8549 41.5869,-77.5578"/>
</g>
<!-- node3 -->
<g id="node3" class="node"><title>node3</title>
<ellipse fill="none" stroke="black" cx="34" cy="-994" rx="33.5952" ry="33.5952"/>
<text text-anchor="middle" x="34" y="-990.3" font-family="Times,serif" font-size="14.00">node3</text>
</g>
<!-- node2&#45;&gt;node3 -->
<g id="edge5" class="edge"><title>node2&#45;&gt;node3</title>
<path fill="none" stroke="black" d="M30.3326,-547.753C26.3704,-632.7 26.2278,-855.311 29.9047,-950.169"/>
<polygon fill="black" stroke="black" points="26.4131,-950.442 30.3343,-960.285 33.4068,-950.145 26.4131,-950.442"/>
</g>
<!-- node2&#45;&gt;node4 -->
<g id="edge6" class="edge"><title>node2&#45;&gt;node4</title>
<path fill="none" stroke="black" d="M60.0295,-492.423C142.625,-416.414 397.998,-161.239 484.821,-68.2269"/>
<polygon fill="black" stroke="black" points="487.5,-70.4856 491.737,-60.7746 482.369,-65.7242 487.5,-70.4856"/>
</g>
<!-- node2&#45;&gt;node5 -->
<g id="edge7" class="edge"><title>node2&#45;&gt;node5</title>
<path fill="none" stroke="black" d="M67.7527,-517.667C152.495,-521.62 374.234,-521.771 469.478,-518.122"/>
<polygon fill="black" stroke="black" points="469.798,-521.612 479.642,-517.695 469.504,-514.618 469.798,-521.612"/>
</g>
<!-- node6 -->
<g id="node6" class="node"><title>node6</title>
<ellipse fill="none" stroke="black" cx="514" cy="-994" rx="34.394" ry="34.394"/>
<text text-anchor="middle" x="514" y="-990.3" font-family="Times,serif" font-size="14.00">node6</text>
</g>
<!-- node2&#45;&gt;node6 -->
<g id="edge8" class="edge"><title>node2&#45;&gt;node6</title>
<path fill="none" stroke="black" d="M55.5771,-540.029C131.586,-622.625 386.761,-877.998 479.773,-964.821"/>
<polygon fill="black" stroke="black" points="477.514,-967.5 487.225,-971.737 482.276,-962.369 477.514,-967.5"/>
</g>
<!-- node3&#45;&gt;node2 -->
<g id="edge9" class="edge"><title>node3&#45;&gt;node2</title>
<path fill="none" stroke="black" d="M37.6674,-960.247C41.6296,-875.3 41.7722,-652.689 38.0953,-557.831"/>
<polygon fill="black" stroke="black" points="41.5869,-557.558 37.6657,-547.715 34.5932,-557.855 41.5869,-557.558"/>
</g>
<!-- node3&#45;&gt;node5 -->
<g id="edge10" class="edge"><title>node3&#45;&gt;node5</title>
<path fill="none" stroke="black" d="M60.0295,-972.423C142.625,-896.414 397.998,-641.239 484.821,-548.227"/>
<polygon fill="black" stroke="black" points="487.5,-550.486 491.737,-540.775 482.369,-545.724 487.5,-550.486"/>
</g>
<!-- node3&#45;&gt;node6 -->
<g id="edge11" class="edge"><title>node3&#45;&gt;node6</title>
<path fill="none" stroke="black" d="M67.7527,-997.667C152.495,-1001.62 374.234,-1001.77 469.478,-998.122"/>
<polygon fill="black" stroke="black" points="469.798,-1001.61 479.642,-997.695 469.504,-994.618 469.798,-1001.61"/>
</g>
<!-- node4&#45;&gt;node1 -->
<g id="edge12" class="edge"><title>node4&#45;&gt;node1</title>
<path fill="none" stroke="black" d="M479.48,-30.2971C394.012,-26.3717 172.645,-26.239 77.9848,-29.8988"/>
<polygon fill="black" stroke="black" points="77.73,-26.4063 67.8871,-30.3263 78.0262,-33.4 77.73,-26.4063"/>
</g>
<!-- node4&#45;&gt;node2 -->
<g id="edge13" class="edge"><title>node4&#45;&gt;node2</title>
<path fill="none" stroke="black" d="M487.283,-56.2098C403.733,-133.208 148.326,-388.452 62.4495,-480.555"/>
<polygon fill="black" stroke="black" points="59.8466,-478.214 55.6164,-487.928 64.9808,-482.972 59.8466,-478.214"/>
</g>
<!-- node4&#45;&gt;node5 -->
<g id="edge14" class="edge"><title>node4&#45;&gt;node5</title>
<path fill="none" stroke="black" d="M510.297,-68.5204C506.381,-153.78 506.24,-374.282 509.872,-469.325"/>
<polygon fill="black" stroke="black" points="506.382,-469.626 510.297,-479.471 513.376,-469.333 506.382,-469.626"/>
</g>
<!-- node7 -->
<g id="node7" class="node"><title>node7</title>
<ellipse fill="none" stroke="black" cx="994" cy="-34" rx="33.5952" ry="33.5952"/>
<text text-anchor="middle" x="994" y="-30.3" font-family="Times,serif" font-size="14.00">node7</text>
</g>
<!-- node4&#45;&gt;node7 -->
<g id="edge15" class="edge"><title>node4&#45;&gt;node7</title>
<path fill="none" stroke="black" d="M548.52,-37.7029C633.988,-41.6283 855.355,-41.761 950.015,-38.1012"/>
<polygon fill="black" stroke="black" points="950.27,-41.5937 960.113,-37.6737 949.974,-34.6 950.27,-41.5937"/>
</g>
<!-- node8 -->
<g id="node8" class="node"><title>node8</title>
<ellipse fill="none" stroke="black" cx="994" cy="-514" rx="33.5952" ry="33.5952"/>
<text text-anchor="middle" x="994" y="-510.3" font-family="Times,serif" font-size="14.00">node8</text>
</g>
<!-- node4&#45;&gt;node8 -->
<g id="edge16" class="edge"><title>node4&#45;&gt;node8</title>
<path fill="none" stroke="black" d="M536.21,-60.7165C613.208,-144.267 868.452,-399.674 960.555,-485.551"/>
<polygon fill="black" stroke="black" points="958.214,-488.153 967.928,-492.384 962.972,-483.019 958.214,-488.153"/>
</g>
<!-- node5&#45;&gt;node1 -->
<g id="edge17" class="edge"><title>node5&#45;&gt;node1</title>
<path fill="none" stroke="black" d="M491.79,-487.283C414.792,-403.733 159.548,-148.326 67.4454,-62.4495"/>
<polygon fill="black" stroke="black" points="69.7859,-59.8466 60.0722,-55.6164 65.0278,-64.9808 69.7859,-59.8466"/>
</g>
<!-- node5&#45;&gt;node2 -->
<g id="edge18" class="edge"><title>node5&#45;&gt;node2</title>
<path fill="none" stroke="black" d="M479.48,-510.297C394.012,-506.372 172.645,-506.239 77.9848,-509.899"/>
<polygon fill="black" stroke="black" points="77.73,-506.406 67.8871,-510.326 78.0262,-513.4 77.73,-506.406"/>
</g>
<!-- node5&#45;&gt;node3 -->
<g id="edge19" class="edge"><title>node5&#45;&gt;node3</title>
<path fill="none" stroke="black" d="M487.283,-536.21C403.733,-613.208 148.326,-868.452 62.4495,-960.555"/>
<polygon fill="black" stroke="black" points="59.8466,-958.214 55.6164,-967.928 64.9808,-962.972 59.8466,-958.214"/>
</g>
<!-- node5&#45;&gt;node4 -->
<g id="edge20" class="edge"><title>node5&#45;&gt;node4</title>
<path fill="none" stroke="black" d="M517.703,-479.48C521.619,-394.22 521.76,-173.718 518.128,-78.6754"/>
<polygon fill="black" stroke="black" points="521.618,-78.3744 517.703,-68.5295 514.624,-78.667 521.618,-78.3744"/>
</g>
<!-- node5&#45;&gt;node6 -->
<g id="edge21" class="edge"><title>node5&#45;&gt;node6</title>
<path fill="none" stroke="black" d="M510.297,-548.52C506.381,-633.78 506.24,-854.282 509.872,-949.325"/>
<polygon fill="black" stroke="black" points="506.382,-949.626 510.297,-959.471 513.376,-949.333 506.382,-949.626"/>
</g>
<!-- node5&#45;&gt;node7 -->
<g id="edge22" class="edge"><title>node5&#45;&gt;node7</title>
<path fill="none" stroke="black" d="M540.717,-491.79C624.267,-414.792 879.674,-159.548 965.551,-67.4454"/>
<polygon fill="black" stroke="black" points="968.153,-69.7859 972.384,-60.0722 963.019,-65.0278 968.153,-69.7859"/>
</g>
<!-- node5&#45;&gt;node8 -->
<g id="edge23" class="edge"><title>node5&#45;&gt;node8</title>
<path fill="none" stroke="black" d="M548.52,-517.703C633.988,-521.628 855.355,-521.761 950.015,-518.101"/>
<polygon fill="black" stroke="black" points="950.27,-521.594 960.113,-517.674 949.974,-514.6 950.27,-521.594"/>
</g>
<!-- node9 -->
<g id="node9" class="node"><title>node9</title>
<ellipse fill="none" stroke="black" cx="994" cy="-994" rx="34.394" ry="34.394"/>
<text text-anchor="middle" x="994" y="-990.3" font-family="Times,serif" font-size="14.00">node9</text>
</g>
<!-- node5&#45;&gt;node9 -->
<g id="edge24" class="edge"><title>node5&#45;&gt;node9</title>
<path fill="none" stroke="black" d="M536.21,-540.717C613.03,-624.073 867.272,-878.492 959.912,-964.951"/>
<polygon fill="black" stroke="black" points="957.623,-967.602 967.335,-971.837 962.384,-962.47 957.623,-967.602"/>
</g>
<!-- node6&#45;&gt;node2 -->
<g id="edge25" class="edge"><title>node6&#45;&gt;node2</title>
<path fill="none" stroke="black" d="M491.79,-967.283C414.792,-883.733 159.548,-628.326 67.4454,-542.449"/>
<polygon fill="black" stroke="black" points="69.7859,-539.847 60.0722,-535.616 65.0278,-544.981 69.7859,-539.847"/>
</g>
<!-- node6&#45;&gt;node3 -->
<g id="edge26" class="edge"><title>node6&#45;&gt;node3</title>
<path fill="none" stroke="black" d="M479.48,-990.297C394.012,-986.372 172.645,-986.239 77.9848,-989.899"/>
<polygon fill="black" stroke="black" points="77.73,-986.406 67.8871,-990.326 78.0262,-993.4 77.73,-986.406"/>
</g>
<!-- node6&#45;&gt;node5 -->
<g id="edge27" class="edge"><title>node6&#45;&gt;node5</title>
<path fill="none" stroke="black" d="M517.703,-959.48C521.619,-874.22 521.76,-653.718 518.128,-558.675"/>
<polygon fill="black" stroke="black" points="521.618,-558.374 517.703,-548.529 514.624,-558.667 521.618,-558.374"/>
</g>
<!-- node6&#45;&gt;node8 -->
<g id="edge28" class="edge"><title>node6&#45;&gt;node8</title>
<path fill="none" stroke="black" d="M540.717,-971.79C624.267,-894.792 879.674,-639.548 965.551,-547.445"/>
<polygon fill="black" stroke="black" points="968.153,-549.786 972.384,-540.072 963.019,-545.028 968.153,-549.786"/>
</g>
<!-- node6&#45;&gt;node9 -->
<g id="edge29" class="edge"><title>node6&#45;&gt;node9</title>
<path fill="none" stroke="black" d="M548.52,-997.703C633.78,-1001.62 854.282,-1001.76 949.325,-998.128"/>
<polygon fill="black" stroke="black" points="949.626,-1001.62 959.471,-997.703 949.333,-994.624 949.626,-1001.62"/>
</g>
<!-- node7&#45;&gt;node4 -->
<g id="edge30" class="edge"><title>node7&#45;&gt;node4</title>
<path fill="none" stroke="black" d="M960.247,-30.3326C875.505,-26.38 653.766,-26.2285 558.522,-29.8781"/>
<polygon fill="black" stroke="black" points="558.202,-26.3883 548.358,-30.3045 558.496,-33.3822 558.202,-26.3883"/>
</g>
<!-- node7&#45;&gt;node5 -->
<g id="edge31" class="edge"><title>node7&#45;&gt;node5</title>
<path fill="none" stroke="black" d="M967.971,-55.5771C885.375,-131.586 630.002,-386.761 543.179,-479.773"/>
<polygon fill="black" stroke="black" points="540.5,-477.514 536.263,-487.225 545.631,-482.276 540.5,-477.514"/>
</g>
<!-- node7&#45;&gt;node8 -->
<g id="edge32" class="edge"><title>node7&#45;&gt;node8</title>
<path fill="none" stroke="black" d="M990.333,-67.7527C986.37,-152.7 986.228,-375.311 989.905,-470.169"/>
<polygon fill="black" stroke="black" points="986.413,-470.442 990.334,-480.285 993.407,-470.145 986.413,-470.442"/>
</g>
<!-- node8&#45;&gt;node4 -->
<g id="edge33" class="edge"><title>node8&#45;&gt;node4</title>
<path fill="none" stroke="black" d="M972.423,-487.971C896.414,-405.375 641.239,-150.002 548.227,-63.1786"/>
<polygon fill="black" stroke="black" points="550.486,-60.4997 540.775,-56.2633 545.724,-65.6309 550.486,-60.4997"/>
</g>
<!-- node8&#45;&gt;node5 -->
<g id="edge34" class="edge"><title>node8&#45;&gt;node5</title>
<path fill="none" stroke="black" d="M960.247,-510.333C875.505,-506.38 653.766,-506.229 558.522,-509.878"/>
<polygon fill="black" stroke="black" points="558.202,-506.388 548.358,-510.305 558.496,-513.382 558.202,-506.388"/>
</g>
<!-- node8&#45;&gt;node6 -->
<g id="edge35" class="edge"><title>node8&#45;&gt;node6</title>
<path fill="none" stroke="black" d="M967.971,-535.577C885.375,-611.586 630.002,-866.761 543.179,-959.773"/>
<polygon fill="black" stroke="black" points="540.5,-957.514 536.263,-967.225 545.631,-962.276 540.5,-957.514"/>
</g>
<!-- node8&#45;&gt;node7 -->
<g id="edge36" class="edge"><title>node8&#45;&gt;node7</title>
<path fill="none" stroke="black" d="M997.667,-480.247C1001.63,-395.3 1001.77,-172.689 998.095,-77.8308"/>
<polygon fill="black" stroke="black" points="1001.59,-77.5578 997.666,-67.7154 994.593,-77.8549 1001.59,-77.5578"/>
</g>
<!-- node8&#45;&gt;node9 -->
<g id="edge37" class="edge"><title>node8&#45;&gt;node9</title>
<path fill="none" stroke="black" d="M990.333,-547.753C986.38,-632.495 986.229,-854.234 989.878,-949.478"/>
<polygon fill="black" stroke="black" points="986.388,-949.798 990.305,-959.642 993.382,-949.504 986.388,-949.798"/>
</g>
<!-- node9&#45;&gt;node5 -->
<g id="edge38" class="edge"><title>node9&#45;&gt;node5</title>
<path fill="none" stroke="black" d="M971.79,-967.283C894.97,-883.927 640.728,-629.508 548.088,-543.049"/>
<polygon fill="black" stroke="black" points="550.377,-540.398 540.665,-536.163 545.616,-545.53 550.377,-540.398"/>
</g>
<!-- node9&#45;&gt;node6 -->
<g id="edge39" class="edge"><title>node9&#45;&gt;node6</title>
<path fill="none" stroke="black" d="M959.48,-990.297C874.22,-986.381 653.718,-986.24 558.675,-989.872"/>
<polygon fill="black" stroke="black" points="558.374,-986.382 548.529,-990.297 558.667,-993.376 558.374,-986.382"/>
</g>
<!-- node9&#45;&gt;node8 -->
<g id="edge40" class="edge"><title>node9&#45;&gt;node8</title>
<path fill="none" stroke="black" d="M997.703,-959.48C1001.63,-874.012 1001.76,-652.645 998.101,-557.985"/>
<polygon fill="black" stroke="black" points="1001.59,-557.73 997.674,-547.887 994.6,-558.026 1001.59,-557.73"/>
</g>
</g>
</svg>
